<?xml version="1.0" encoding="UTF-8" standalone="no"?>
<!-- Created with Inkscape (http://www.inkscape.org/) -->

<svg
   width="158.81085mm"
   height="123.20058mm"
   viewBox="0 0 158.81085 123.20058"
   version="1.1"
   id="svg1"
   xml:space="preserve"
   inkscape:version="1.4 (e7c3feb1, 2024-10-09)"
   sodipodi:docname="purosle_favicon.svg"
   xmlns:inkscape="http://www.inkscape.org/namespaces/inkscape"
   xmlns:sodipodi="http://sodipodi.sourceforge.net/DTD/sodipodi-0.dtd"
   xmlns="http://www.w3.org/2000/svg"
   xmlns:svg="http://www.w3.org/2000/svg"><sodipodi:namedview
     id="namedview1"
     pagecolor="#ffffff"
     bordercolor="#000000"
     borderopacity="0.25"
     inkscape:showpageshadow="2"
     inkscape:pageopacity="0.0"
     inkscape:pagecheckerboard="0"
     inkscape:deskcolor="#d1d1d1"
     inkscape:document-units="mm"
     inkscape:zoom="0.67130825"
     inkscape:cx="251.00243"
     inkscape:cy="357.51087"
     inkscape:window-width="1680"
     inkscape:window-height="1027"
     inkscape:window-x="1080"
     inkscape:window-y="502"
     inkscape:window-maximized="0"
     inkscape:current-layer="layer1" /><defs
     id="defs1" /><g
     inkscape:label="Layer 1"
     inkscape:groupmode="layer"
     id="layer1"
     transform="translate(-19.114601,-11.727225)"><path
       style="fill:#ff007f;fill-opacity:1"
       d="m 73.055357,134.70086 c -7.728322,-0.89826 -13.821361,-5.55601 -19.26553,-14.72728 -2.807451,-4.72945 -5.80197,-7.30556 -10.21085,-8.78415 -0.906329,-0.30396 -4.044745,-0.9704 -6.974258,-1.48099 -8.601426,-1.49916 -11.262693,-2.64276 -15.149619,-6.51009 l -2.340499,-2.32869 0.61499,-0.870262 c 1.062323,-1.503274 4.013675,-4.253727 6.135374,-5.717747 3.903182,-2.69329 8.872507,-4.68033 15.11704,-6.04472 l 3.284431,-0.71762 -1.271655,-1.60342 c -1.632264,-2.05811 -3.096748,-4.466836 -4.891134,-8.044738 l -1.433252,-2.857824 -1.718409,-0.84597 c -4.307997,-2.12082 -4.502878,-5.080973 -0.478698,-7.271206 1.963766,-1.068816 5.021928,-1.764068 7.81932,-1.777669 l 2.405072,-0.01169 -1.019465,-0.537789 c -1.643304,-0.866875 -3.213218,-2.630023 -3.880616,-4.358262 -0.840282,-2.175926 -1.053044,-7.259282 -0.398703,-9.525863 1.153279,-3.994857 3.667833,-6.99258 9.987176,-11.906205 5.585953,-4.343375 5.774301,-4.532281 8.289898,-8.314463 1.227655,-1.845772 2.72203,-3.912539 3.320833,-4.592815 1.372069,-1.558752 3.923267,-3.388698 6.100811,-4.376044 4.506075,-2.043152 16.634253,-4.703045 23.637563,-5.184074 3.10776,-0.21346 6.21216,0.155415 8.0837,0.960529 1.439023,0.61905 3.051543,2.218291 3.321583,3.294232 0.16155,0.643673 0.22953,0.577095 0.95585,-0.936231 1.61337,-3.3615 5.10687,-5.934832 9.73927,-7.174002 3.87486,-1.036526 11.25608,-0.958195 16.79335,0.178216 8.75805,1.797408 18.06381,5.989269 23.33895,10.513236 2.54235,2.180319 4.05838,4.153597 5.52412,7.190214 5.60109,11.603956 3.73759,21.322175 -5.96482,31.106797 -1.67997,1.694212 -3.57127,3.505147 -4.20288,4.024301 l -1.14838,0.943916 1.67755,-0.532512 c 6.96269,-2.2102 15.9263,3.900017 27.68676,18.873219 l 1.38522,1.76364 -1.39514,0.79822 c -2.38719,1.36581 -5.38863,2.53073 -12.24096,4.75098 -6.75081,2.18734 -10.68532,3.88506 -13.70109,5.91194 -0.9108,0.61214 -3.888,3.407176 -6.67183,6.263596 -7.62629,7.82515 -12.84732,12.23402 -14.99673,12.6639 -0.49074,0.0982 -1.06315,0.57652 -1.65562,1.38362 -3.38009,4.6046 -9.29108,7.88048 -17.21432,9.5402 -3.26185,0.68327 -9.81449,0.99047 -12.409753,0.58179 l -1.82641,-0.28761 -2.80379,1.56168 c -5.05462,2.81535 -9.95665,4.48931 -14.71004,5.02323 -2.61667,0.29391 -2.65152,0.29386 -5.24441,-0.008 z m 9.34545,-5.43782 c 3.14271,-0.53366 7.40833,-1.50333 7.40833,-1.68406 0,-0.0831 -0.80367,-0.30291 -1.78594,-0.48854 C 74.267957,124.49095 58.531461,111.3435 47.418878,93.166531 l -0.410182,-0.67094 -2.8753,0.20155 c -8.449308,0.59226 -13.58454,2.29931 -16.831777,5.595183 -0.836906,0.84945 -1.521646,1.658224 -1.521646,1.797286 0,0.56083 2.482565,2.85603 3.906043,3.61124 2.032266,1.07819 3.641152,1.50674 8.661665,2.30714 2.328333,0.3712 4.987736,0.86306 5.909784,1.09302 5.657582,1.41102 9.538053,4.30225 13.270564,9.88751 6.997132,10.47039 11.313854,13.23432 19.977988,12.79161 1.4552,-0.0744 3.65786,-0.30704 4.89479,-0.51709 z m 23.316323,-5.68674 c 7.70865,-1.3089 14.10588,-4.41181 17.29626,-8.38936 2.13577,-2.66273 3.11429,-5.23216 3.45945,-9.08389 0.16465,-1.83734 0.13582,-2.03507 -0.31573,-2.1658 -0.27331,-0.0791 -2.75912,-0.57488 -5.52401,-1.10168 -10.40877,-1.98321 -15.99632,-3.598642 -21.431253,-6.196059 -5.80935,-2.77634 -10.66643,-6.16186 -15.59407,-10.86951 -5.11635,-4.887944 -8.99249,-7.607332 -15.097597,-10.592036 -7.293815,-3.565847 -14.853444,-5.602166 -22.230341,-5.988136 -4.721076,-0.247014 -8.329033,0.514197 -8.329033,1.757269 0,1.949226 8.103509,4.849853 18.123957,6.487416 7.402104,1.209668 11.395533,2.940626 14.974445,6.490697 1.966359,1.95051 3.317199,4.15079 3.792059,6.17657 0.16761,0.71505 0.0755,0.66846 -1.48871,-0.7526 -2.211579,-2.00924 -6.253554,-4.68466 -8.548168,-5.65811 -2.628303,-1.115001 -4.146534,-1.506743 -9.391084,-2.423135 -5.323381,-0.930167 -8.102943,-1.718412 -10.695879,-3.033203 -1.007785,-0.511015 -1.867042,-0.894412 -1.909459,-0.851995 -0.154091,0.154091 4.259262,8.077813 6.437169,11.557273 7.539802,12.045729 16.618824,21.921789 25.615041,27.863789 4.97804,3.28799 11.48929,5.9853 16.66875,6.90509 3.36766,0.59805 10.264783,0.5336 14.188203,-0.13259 z m 29.01874,-15.64714 c 2.13889,-2.07223 5.85343,-5.67934 8.25452,-8.015802 7.48869,-7.287097 11.08401,-9.178257 23.65877,-12.444627 3.04415,-0.79073 5.5754,-1.47829 5.62501,-1.5279 0.30991,-0.30991 -5.10668,-6.651756 -8.28323,-9.698154 -2.86554,-2.748136 -4.70365,-4.075216 -7.43942,-5.371134 -1.67356,-0.792755 -1.9722,-0.846574 -4.69759,-0.846574 -2.67906,0 -3.02267,0.05912 -4.32263,0.743793 -3.66394,1.929745 -6.08238,5.756517 -10.23147,16.189539 -2.37334,5.96785 -3.76056,8.89158 -5.2307,11.024333 l -1.2159,1.763924 0.26846,1.807962 c 0.35907,2.41809 -0.0146,7.43286 -0.72131,9.67931 -0.31851,1.01253 0.60962,0.30507 4.33549,-3.30467 z m -9.68188,-12.239609 c 1.40838,-6.22176 1.79554,-11.08832 1.26293,-15.874999 -0.23167,-2.082104 -1.71262,-8.801409 -2.0073,-9.107511 -0.0591,-0.06142 -1.08914,0.842564 -2.28889,2.008859 -4.7246,4.592819 -10.64178,8.351319 -21.17284,13.448651 -2.705813,1.30969 -4.927233,2.44298 -4.936493,2.51842 -0.0327,0.26641 4.111863,2.88044 6.200873,3.91095 2.64507,1.30483 7.02683,2.9133 10.93223,4.01305 3.56987,1.00527 10.01932,2.391433 10.76261,2.313183 0.44941,-0.0473 0.63535,-0.52906 1.24688,-3.230603 z m 8.90966,-12.24097 c 5.55356,-13.611355 7.84034,-17.593991 13.78454,-24.006945 4.82118,-5.201383 6.4374,-7.522415 7.55368,-10.847746 1.55531,-4.633186 0.96357,-9.436195 -1.90149,-15.433941 -0.9476,-1.983728 -1.60508,-2.912486 -3.34414,-4.723929 -6.21298,-6.47158 -18.79384,-11.742243 -29.08389,-12.184489 -6.92919,-0.297803 -10.89617,1.102842 -13.45493,4.750596 -1.28967,1.838559 -1.83328,3.440839 -1.83328,5.403603 0,1.301182 0.053,1.421428 0.69838,1.583398 1.21909,0.305974 5.89386,-0.129389 10.6787,-0.994513 3.11927,-0.563979 5.54228,-0.845864 7.4252,-0.863822 2.61406,-0.02493 2.89666,0.02511 4.36562,0.773045 2.47308,1.259187 3.81726,3.661648 4.95583,8.85759 0.75031,3.424134 0.80346,11.397118 0.0996,14.948958 -0.91427,4.613922 -2.33607,8.468415 -4.07731,11.053537 -0.41391,0.614513 -0.84346,1.265398 -0.95455,1.446412 -0.31065,0.506149 3.80992,-1.03923 5.51727,-2.069204 3.32285,-2.004525 6.24515,-5.414575 7.69241,-8.976303 0.75852,-1.866737 1.42921,-4.850516 1.44592,-6.432676 l 0.0117,-1.107182 0.56367,1.058333 c 0.78944,1.48225 0.95543,4.794753 0.34592,6.90334 -1.72503,5.967781 -8.51717,13.461937 -13.94955,15.39135 -0.91145,0.323715 -1.23133,0.564295 -1.13863,0.856354 0.38244,1.204975 1.19382,5.497287 1.47541,7.805205 0.35562,2.914539 0.47151,11.973919 0.16925,13.229169 l -0.19114,0.79375 0.37111,-0.66146 c 0.2041,-0.3638 1.45271,-3.3124 2.77467,-6.55243 z m -39.085003,0.43911 c 6.873993,-3.094881 15.000713,-7.505723 20.043243,-10.878628 5.56743,-3.724003 8.66298,-6.660734 10.16512,-9.643582 1.91961,-3.811846 3.95988,-10.727388 4.81903,-16.33427 0.55756,-3.63866 0.42843,-9.461984 -0.24988,-11.268797 -0.8286,-2.207154 -3.12127,-3.969735 -5.16361,-3.969735 -3.09453,0 -3.97441,2.254343 -2.40736,6.167868 1.16115,2.899831 1.65097,5.290188 1.66385,8.119631 0.0314,6.90908 -3.44305,12.458026 -12.5141,19.985763 -1.23393,1.023993 -4.02945,3.345098 -6.21226,5.158012 -4.74075,3.937386 -9.184083,8.289797 -11.599013,11.361664 -1.58698,2.018694 -1.98235,2.652894 -1.65387,2.652894 0.0597,0 1.4587,-0.60787 3.10885,-1.35082 z m -4.53017,-3.599011 c 4.43664,-5.614527 9.63085,-10.230891 17.584623,-15.628348 3.41072,-2.314531 5.95933,-4.537778 7.40219,-6.457208 1.2417,-1.651823 2.91894,-4.668137 2.71124,-4.875838 -0.0592,-0.05922 -1.01716,0.312528 -2.12875,0.826113 -2.7806,1.284716 -6.91858,2.6315 -10.23364,3.330736 -3.59458,0.758194 -10.175483,0.829576 -13.229173,0.143495 -4.57993,-1.028989 -6.76693,-1.977673 -13.44968,-5.834237 -2.23134,-1.287688 -4.67025,-2.574275 -5.4198,-2.859083 -1.776734,-0.675105 -5.592849,-1.065332 -8.222443,-0.840807 l -2.088803,0.178349 0.156175,3.335934 c 0.23223,4.960484 1.414264,9.052023 3.785231,13.102348 1.488472,2.542758 4.233569,5.348238 6.19011,6.326273 l 1.45442,0.727036 0.0811,-0.643534 c 0.12328,-0.978352 -0.51314,-2.217669 -2.260668,-4.402231 -2.391387,-2.98945 -3.271272,-5.076785 -3.624762,-8.598958 -0.144566,-1.440448 0.230222,-6.684907 0.496775,-6.951461 0.06082,-0.06082 0.809533,0.471084 1.663801,1.182013 4.922314,4.096394 10.810014,6.886768 17.534394,8.310131 2.23933,0.474003 4.00965,0.618194 9.12812,0.743475 l 6.350003,0.155425 -2.11666,0.858188 c -4.033873,1.635501 -5.915993,1.996667 -10.451053,2.005481 -2.89863,0.0056 -4.66154,-0.12063 -6.01273,-0.430648 -4.20893,-0.965698 -7.90396,-2.544623 -10.60051,-4.529708 -1.75113,-1.289111 -2.06987,-1.232577 -1.77943,0.31561 0.23859,1.27183 0.96889,2.66744 2.50963,4.795969 1.32687,1.833049 2.56276,4.103781 2.96591,5.449337 0.13121,0.437903 0.34121,1.673184 0.46667,2.745068 0.19771,1.6891 0.38822,2.182857 1.42924,3.704167 0.66062,0.965407 1.65448,2.190438 2.20857,2.722291 1.0319,0.990481 4.85881,3.927786 5.11737,3.927786 0.0791,0 1.15121,-1.274924 2.38254,-2.833164 z M 62.821638,67.656172 c 0,-0.06591 -0.535425,-1.558839 -1.189834,-3.317619 -3.156393,-8.483074 -4.022479,-15.092799 -2.508026,-19.140538 0.532079,-1.422109 0.580805,-1.467665 1.864164,-1.742896 3.999398,-0.857717 5.465853,-0.920074 11.159287,-0.474514 0.677698,0.05304 0.805888,-0.118555 1.903608,-2.548087 2.05487,-4.547934 3.93112,-6.958607 7.11493,-9.141509 1.84118,-1.262361 3.74028,-1.845787 7.96154,-2.445883 2.04849,-0.291216 4.33597,-0.704131 5.08327,-0.91759 2.81129,-0.803011 4.96481,-2.893204 4.96481,-4.818808 0,-1.870553 -2.46367,-2.957751 -6.70229,-2.957664 -4.29389,8.8e-5 -13.81625,1.805501 -19.762514,3.746918 -5.677664,1.853721 -8.176505,3.759226 -11.554243,8.810756 -3.60144,5.386084 -4.27171,6.030884 -10.062374,9.680013 -5.235514,3.299287 -7.344938,6.020657 -7.754508,10.004099 -0.320354,3.115737 0.940163,6.796801 3.031424,8.852609 1.847768,1.816445 7.402729,4.323008 13.011173,5.87103 2.153275,0.594338 3.439583,0.796165 3.439583,0.539683 z m 40.084382,-13.11961 c 3.62655,-0.51769 8.06979,-2.027086 8.06979,-2.741361 0,-0.16397 -0.42265,-0.925717 -0.93921,-1.69277 l -0.93921,-1.394642 -1.77277,1.476562 c -3.20438,2.668961 -6.21345,3.722732 -9.367613,3.280514 -1.7137,-0.240263 -7.81594,0.02452 -7.2942,0.316506 1.39834,0.782549 8.8372,1.241396 12.243213,0.755191 z M 89.634797,48.924449 c -0.36124,-1.064505 -0.71917,-2.873623 -0.80422,-4.0649 -0.19713,-2.760928 0.4316,-4.939424 2.32218,-8.046171 0.75059,-1.233416 1.61116,-2.647545 1.91238,-3.142508 l 0.54768,-0.899934 -3.42319,0.1514 c -3.99909,0.176872 -5.27586,0.518499 -7.44631,1.992422 -2.63291,1.787976 -3.3252,2.862589 -5.24781,8.145984 l -0.87499,2.404522 1.2365,0.595757 c 0.68007,0.327666 2.29008,1.258009 3.57779,2.06743 3.28848,2.067043 4.94676,2.700294 7.09128,2.707947 l 1.75966,0.0063 z m 12.236773,0.339639 c 0.85999,-0.431662 2.206,-1.34901 2.99115,-2.038551 l 1.42754,-1.25371 -1.01318,-0.875825 c -2.10098,-1.816156 -3.35618,-1.752023 -6.174533,0.315482 -2.2248,1.632084 -2.25801,1.634533 -1.39173,0.102627 1.09128,-1.9298 3.307013,-4.364352 4.548523,-4.997725 1.43792,-0.733571 3.38205,-0.686278 4.97518,0.121025 1.48938,0.754725 3.86116,3.220743 4.79917,4.989845 0.36355,0.68567 0.77239,1.246672 0.90853,1.246672 0.53103,0 2.74696,-2.631794 3.18775,-3.785989 0.86533,-2.265834 -0.12454,-4.16719 -2.95151,-5.669297 -2.31517,-1.230162 -4.54537,-1.719699 -7.7589,-1.70311 -4.23789,0.02188 -6.849573,0.884258 -9.178113,3.030633 -1.80892,1.667407 -2.53399,3.30431 -2.67305,6.034677 l -0.11575,2.272538 1.17001,0.958735 c 2.64499,2.167375 4.71345,2.524621 7.248913,1.251973 z m 17.29291,-0.928157 1.4041,-0.71151 -0.16584,-1.411069 c -0.26115,-2.221909 -0.42857,-2.444912 -0.95416,-1.270949 -0.2494,0.557036 -1.19489,1.872123 -2.10109,2.922416 l -1.64765,1.909624 1.03027,-0.363501 c 0.56665,-0.199925 1.66212,-0.68368 2.43437,-1.075011 z m -2.90153,-13.38403 c -0.44149,-1.539379 -0.31009,-2.747069 0.41516,-3.815786 l 0.67522,-0.994991 -1.00595,0.180153 c -0.55327,0.09908 -2.33289,0.473852 -3.95472,0.832818 -2.55473,0.565452 -3.49165,0.642886 -7.01145,0.579479 l -4.06269,-0.07319 0.038,-0.661458 c 0.0209,-0.363802 0.11595,-1.67349 0.21119,-2.910417 0.13774,-1.788919 0.10939,-2.140714 -0.13856,-1.719792 -0.58579,0.994451 -2.226193,2.557762 -3.285663,3.131274 l -1.05834,0.572893 1.52053,0.07933 1.520523,0.07932 -1.275303,1.90505 c -1.83254,2.737469 -1.81199,2.668342 -0.61111,2.055702 4.204803,-2.145128 12.946893,-1.545349 17.233903,1.182385 0.50933,0.324071 0.95377,0.565545 0.98767,0.536609 0.0339,-0.02894 -0.0554,-0.460657 -0.19844,-0.959382 z"
       id="path2"
       sodipodi:nodetypes="csssscssscsscssscsssssssssscsssssscsscsssscssscssccsssscssssssscsssscssssssssscsssssssssssssssssscsssssccsssssscssssscscsssscscssscscscsscsccssssssscsssssssscsssssscssscssssssscscssssssssssssssssssscsssssssssssscsscsscsscssscssccssscsssssssssssscssscscscsscscssscsssccccscsscc"
       inkscape:export-filename="rosle.png"
       inkscape:export-xdpi="96"
       inkscape:export-ydpi="96" /></g></svg>
