<?xml version="1.0" encoding="UTF-8" standalone="no"?>
<!-- Created with Inkscape (http://www.inkscape.org/) -->

<svg
   width="158.88228mm"
   height="123.26379mm"
   viewBox="0 0 158.88228 123.26379"
   version="1.1"
   id="svg1"
   xml:space="preserve"
   inkscape:version="1.4 (e7c3feb1, 2024-10-09)"
   sodipodi:docname="rosle-logo.svg"
   xmlns:inkscape="http://www.inkscape.org/namespaces/inkscape"
   xmlns:sodipodi="http://sodipodi.sourceforge.net/DTD/sodipodi-0.dtd"
   xmlns="http://www.w3.org/2000/svg"
   xmlns:svg="http://www.w3.org/2000/svg"><sodipodi:namedview
     id="namedview1"
     pagecolor="#ffffff"
     bordercolor="#000000"
     borderopacity="0.25"
     inkscape:showpageshadow="2"
     inkscape:pageopacity="0.0"
     inkscape:pagecheckerboard="0"
     inkscape:deskcolor="#d1d1d1"
     inkscape:document-units="mm"
     inkscape:zoom="0.60998039"
     inkscape:cx="308.20663"
     inkscape:cy="436.0796"
     inkscape:window-width="1680"
     inkscape:window-height="1051"
     inkscape:window-x="0"
     inkscape:window-y="38"
     inkscape:window-maximized="1"
     inkscape:current-layer="layer1" /><defs
     id="defs1" /><g
     inkscape:label="Layer 1"
     inkscape:groupmode="layer"
     id="layer1"
     transform="translate(-7.9318671,-19.561571)"><path
       style="fill:#ff007f;fill-opacity:1"
       d="m 62.28713,142.67322 c -8.319812,-1.31035 -13.727294,-5.33542 -19.315737,-14.37771 -1.923826,-3.11282 -4.513885,-6.02056 -6.481138,-7.27609 -2.257586,-1.44083 -4.557755,-2.16977 -10.451041,-3.31202 -9.444107,-1.83047 -11.469254,-2.6902 -15.734403,-6.6797 l -2.3729439,-2.21958 0.8613809,-1.08758 c 1.1885654,-1.50068 4.381849,-4.42397 6.133465,-5.61487 3.631958,-2.469322 7.986323,-4.230446 14.324645,-5.793609 l 3.873603,-0.955311 -1.648417,-2.190871 c -0.90663,-1.204978 -2.637075,-4.039626 -3.845435,-6.299216 l -2.197018,-4.108346 -1.516114,-0.765332 c -4.022384,-2.030493 -4.458369,-4.707439 -1.112397,-6.830114 1.921284,-1.218858 4.555352,-1.926208 7.790921,-2.092167 l 2.837495,-0.145541 -1.117704,-0.722207 c -2.704028,-1.747214 -3.800289,-3.734275 -4.23847,-7.682566 -0.359749,-3.241569 -0.02776,-5.652659 1.114411,-8.093417 1.498075,-3.201313 3.663221,-5.470527 10.076147,-10.56046 4.116083,-3.26693 5.048131,-4.219865 7.150276,-7.310511 3.740249,-5.499043 5.556705,-7.255856 9.386183,-9.077993 4.139891,-1.969838 14.951685,-4.454341 22.671196,-5.209742 3.588815,-0.351187 7.14733,-0.04003 9.021037,0.788798 1.475871,0.652848 2.945805,1.951062 3.370753,2.976975 l 0.335485,0.809933 0.881405,-1.56403 c 2.887996,-5.124669 8.491015,-7.691797 16.845655,-7.718147 6.49214,-0.02048 13.22187,1.357035 20.07342,4.108834 9.94413,3.993876 15.81404,8.789509 18.72961,15.301837 1.87281,4.183173 2.65998,7.638447 2.65998,11.67597 0,7.288773 -3.53718,13.702268 -11.75255,21.309358 -1.53484,1.421201 -2.13608,2.120232 -1.71979,1.999531 0.35202,-0.102068 1.31932,-0.319835 2.14953,-0.483926 3.2024,-0.632945 7.65318,0.963229 12.19308,4.37278 3.78407,2.841901 9.51176,8.867076 14.6823,15.444857 l 0.86819,1.104489 -1.66194,0.924461 c -2.17129,1.20778 -4.4084,2.079543 -11.88836,4.63267 -12.18219,4.158143 -12.37999,4.279383 -21.37019,13.099783 -7.74469,7.59842 -10.70656,10.1472 -13.14579,11.31235 -1.20181,0.57407 -2.07985,1.28857 -3.42996,2.79112 -3.63071,4.04064 -8.04761,6.50068 -14.64011,8.15398 -4.208628,1.05546 -11.244332,1.51037 -14.664167,0.94815 -1.225681,-0.20151 -1.389358,-0.14803 -4.101042,1.33991 -6.832184,3.74891 -14.862066,5.82549 -19.625451,5.07527 z m 5.973319,-5.1361 c 2.769631,-0.27335 8.480328,-1.34148 9.711219,-1.81638 0.711271,-0.27443 0.63183,-0.30853 -2.476754,-1.06319 -12.515085,-3.03823 -26.511687,-14.48443 -36.849705,-30.13511 l -2.68412,-4.06347 -2.8461,0.16567 c -8.072581,0.46993 -13.364718,2.22572 -16.794127,5.57184 -2.007553,1.9588 -1.998986,2.04577 0.3945,4.00437 2.551416,2.08784 4.28062,2.6608 11.969685,3.96607 4.837618,0.82122 6.903975,1.41476 9.322334,2.67774 3.551545,1.85477 5.173533,3.53778 10.42625,10.81849 4.609357,6.38896 8.318927,9.14557 13.28993,9.87586 2.162398,0.31768 3.302358,0.31735 6.536888,-0.002 z m 27.761056,-6.32651 c 9.830885,-2.09635 16.088395,-6.36494 18.356525,-12.52198 0.55428,-1.50462 1.32992,-6.37946 1.05827,-6.65111 -0.0754,-0.0754 -3.10531,-0.73752 -6.73321,-1.47146 -3.62789,-0.73394 -7.90589,-1.68174 -9.50665,-2.10623 -10.548864,-2.79728 -18.477319,-7.18384 -26.596979,-14.715264 -5.419117,-5.026522 -9.174015,-7.696109 -14.587986,-10.371494 -8.222252,-4.063136 -16.3306,-6.180722 -23.90247,-6.242399 -3.982618,-0.03244 -6.126733,0.329022 -6.878381,1.159584 -1.715092,1.895156 4.983101,4.549813 17.726298,7.025364 7.8811,1.531018 11.250409,2.966063 14.695593,6.259101 0.806024,0.770427 1.866105,1.98489 2.355736,2.698804 0.898683,1.310342 1.993697,3.822225 1.76565,4.050273 -0.0679,0.0679 -0.893377,-0.529698 -1.834397,-1.32799 -3.367361,-2.856621 -7.211361,-5.161718 -10.394719,-6.233308 -0.858429,-0.288967 -3.763436,-0.950318 -6.455571,-1.469669 -6.023444,-1.162008 -8.268974,-1.772588 -10.934226,-2.973114 -1.138876,-0.512991 -2.13492,-0.868476 -2.21343,-0.789966 -0.1555,0.1555 2.157355,4.425347 4.893055,9.033248 7.424527,12.50557 17.23155,23.57668 26.246267,29.6293 5.825018,3.91101 12.732756,6.77367 18.25625,7.56565 0.800365,0.11476 3.836459,0.1655 6.746875,0.11276 4.118017,-0.0746 5.878492,-0.22103 7.9375,-0.6601 z m 29.897405,-17.66376 c 8.30458,-8.00387 10.70333,-10.14974 13.25125,-11.85431 3.72336,-2.490925 7.52393,-3.961635 16.38259,-6.33959 5.72753,-1.537454 5.42396,-1.438179 5.42396,-1.77378 0,-0.513587 -4.03184,-5.28114 -7.01146,-8.290876 -3.35566,-3.389587 -5.07835,-4.740603 -7.91935,-6.210759 l -2.031,-1.050993 -3.22691,0.0025 c -3.10817,0.0024 -3.27847,0.03205 -4.62828,0.806133 -3.48809,2.000324 -5.60917,5.39164 -9.89195,15.815871 -2.70509,6.584154 -3.90788,9.114894 -5.36426,11.286724 l -1.16065,1.73084 0.26111,1.78158 c 0.34085,2.32572 -0.0955,8.05068 -0.74207,9.73557 -0.3835,0.9994 0.87842,-0.0695 6.65702,-5.63889 z m -12.6579,-7.47448 c 0.49886,-1.06055 1.63129,-7.011764 1.96351,-10.318745 0.16812,-1.67349 0.23341,-4.262372 0.14509,-5.753071 -0.14945,-2.522495 -1.10168,-7.893503 -1.85514,-10.463765 l -0.32637,-1.113372 -1.83642,1.741904 c -5.31446,5.040931 -10.21548,8.210367 -21.084862,13.635362 -2.874037,1.434454 -5.225521,2.701484 -5.225521,2.815621 0,0.2696 3.950881,2.832321 5.801627,3.763196 2.307635,1.16069 7.029228,2.90798 10.693946,3.95745 3.93988,1.12828 10.12018,2.51674 10.88632,2.44571 0.28968,-0.0269 0.6667,-0.34648 0.83782,-0.71029 z m 9.61318,-14.816662 c 3.28594,-7.922698 6.11418,-13.832738 8.00775,-16.733443 1.49633,-2.292176 3.37855,-4.608981 7.00366,-8.620702 4.90663,-5.429922 6.55688,-8.54921 7.09309,-13.407312 0.35003,-3.171283 -1.14645,-8.819852 -3.39967,-12.832292 -1.17838,-2.098418 -4.70059,-5.499986 -7.79327,-7.52634 -10.90387,-7.144304 -26.39614,-10.164978 -33.56738,-6.544946 -3.062883,1.546137 -5.323127,4.837429 -5.587988,8.137037 -0.130176,1.62171 -0.110234,1.691234 0.574598,2.003264 0.842326,0.38379 5.259,0.02805 10.29759,-0.829409 4.55484,-0.77514 8.67578,-1.090681 10.27739,-0.786942 4.39387,0.83328 6.79327,5.349611 7.3593,13.852188 0.55716,8.369437 -1.03421,16.349873 -4.25357,21.330841 -0.58502,0.905146 -0.99868,1.710722 -0.91923,1.790169 0.0795,0.07945 1.0084,-0.188681 2.06433,-0.595842 6.9945,-2.697027 11.58101,-8.723772 12.28726,-16.145645 l 0.17624,-1.852083 0.49955,1.13976 c 0.65153,1.486502 0.87846,4.329251 0.49014,6.139924 -1.19257,5.560766 -8.15331,13.640422 -13.68599,15.885973 -1.70153,0.6906 -1.64468,0.204807 -0.61753,5.27705 0.4581,2.262192 0.58904,4.094988 0.70504,9.868988 0.0784,3.899975 0.17795,7.055131 0.22131,7.011458 0.0434,-0.04367 1.28868,-2.996436 2.76738,-6.561696 z m -39.460704,0.666601 c 9.681279,-4.292447 20.947564,-10.890149 25.816284,-15.118402 3.92091,-3.40512 5.48311,-6.146255 7.57968,-13.299776 1.75316,-5.981812 2.20962,-8.81569 2.2209,-13.788005 0.0114,-5.004648 -0.25719,-6.323186 -1.60959,-7.903164 -2.21589,-2.588774 -6.12938,-2.888338 -6.95078,-0.53206 -0.45371,1.301513 -0.37276,1.838261 0.80245,5.320661 0.98189,2.909553 1.10842,3.576692 1.21793,6.421854 0.31965,8.305025 -2.71888,12.91044 -15.542813,23.557809 -7.801647,6.477499 -13.838233,12.439195 -15.997423,15.798961 -0.257182,0.400182 -0.409732,0.727604 -0.339001,0.727604 0.07073,0 1.331795,-0.533467 2.802363,-1.185482 z m -3.725449,-4.238476 c 4.560897,-5.47362 8.61419,-9.123245 15.657094,-14.0978 6.579589,-4.647305 8.809259,-6.842609 10.874529,-10.706887 0.9501,-1.777731 0.80602,-1.857177 -1.50013,-0.827137 -2.09339,0.935014 -5.489499,2.083594 -8.698025,2.941716 -2.470518,0.660742 -3.02276,0.708361 -8.334375,0.718661 -4.739319,0.0092 -5.99759,-0.07137 -7.540625,-0.482753 C 76.807957,64.339542 74.360682,63.248866 69.013871,60.268159 66.114528,58.651851 63.202677,57.116648 62.54309,56.856597 60.856237,56.191532 56.73634,55.74162 54.288456,55.955152 l -2.055492,0.179303 v 1.29918 c 0,2.118896 0.526939,6.211318 1.079214,8.381618 0.844974,3.320529 3.068006,7.534369 5.179186,9.817342 1.629026,1.761585 4.525251,3.981447 5.19454,3.981447 0.596418,0 -0.06792,-2.171025 -1.112279,-3.634884 -3.810292,-5.340806 -4.272783,-6.423491 -4.456611,-10.43285 -0.141963,-3.096267 0.10526,-6.305182 0.485767,-6.305182 0.133256,0 1.304954,0.806796 2.603773,1.792881 4.399513,3.340182 8.897426,5.511468 14.388179,6.945631 3.471448,0.906729 7.453489,1.306972 13.150731,1.321806 4.834165,0.01259 4.848593,0.148104 0.186295,1.749808 l -2.96442,1.018409 -5.55625,-0.0037 c -5.334061,-0.0035 -5.651416,-0.03325 -7.936046,-0.743314 -2.973071,-0.924027 -6.181437,-2.416442 -8.326768,-3.873308 -1.139911,-0.774099 -1.732594,-1.034287 -1.922779,-0.844102 -0.474644,0.474643 0.526981,2.914782 2.298865,5.600449 2.404227,3.644117 2.997835,4.963445 3.473578,7.720229 0.47823,2.771198 0.635913,3.140206 2.318453,5.425625 1.095575,1.488135 6.108352,5.747419 6.558302,5.572494 0.09228,-0.03587 1.35828,-1.493974 2.813343,-3.240224 z M 51.583941,75.185416 c -1.106395,-2.883219 -3.144526,-9.519636 -3.59659,-11.710957 -1.059103,-5.13387 -0.610073,-10.815761 0.930648,-11.776138 1.116917,-0.696207 4.197018,-1.05673 8.541821,-0.999811 l 4.300815,0.05634 1.44197,-2.91648 c 1.821964,-3.685043 3.449253,-5.969549 5.375533,-7.546563 2.511308,-2.055967 4.20404,-2.689304 9.787078,-3.661846 5.611565,-0.977511 7.088498,-1.553236 8.642764,-3.369046 0.84758,-0.990207 0.957997,-1.277791 0.889568,-2.316903 -0.06618,-1.004902 -0.211136,-1.275737 -0.947694,-1.770613 -1.801117,-1.210128 -5.265921,-1.455568 -10.432273,-0.739001 -5.936287,0.823355 -13.172051,2.567667 -17.096971,4.121533 -4.112402,1.628089 -6.166376,3.43311 -9.704125,8.527928 -2.953593,4.253557 -4.257711,5.516036 -8.992896,8.705765 -5.898632,3.973453 -7.65049,6.027768 -8.345246,9.786046 -0.495787,2.681959 0.471405,6.425315 2.269116,8.782236 1.678031,2.200011 8.950431,5.572417 15.071963,6.989272 1.704688,0.394557 2.065972,0.363212 1.864519,-0.161765 z M 94.178536,61.904067 c 2.676714,-0.643466 5.005477,-1.508225 5.425949,-2.014863 0.264347,-0.31852 0.145889,-0.658373 -0.6443,-1.848484 l -0.968197,-1.458211 -1.6467,1.341048 c -0.905685,0.737577 -2.53286,1.78225 -3.615944,2.321496 l -1.969245,0.980448 -5.306797,0.08432 c -5.238725,0.08324 -6.846565,0.334487 -4.604566,0.719516 4.31916,0.741749 9.942981,0.688896 13.3298,-0.125275 z M 78.491102,56.529146 c -0.883563,-2.967348 -0.931437,-6.342591 -0.119152,-8.40052 0.530706,-1.344549 1.968395,-4.015993 3.452971,-6.416146 l 0.613701,-0.992187 -2.0721,0.0052 c -4.561027,0.01154 -7.173746,0.774027 -9.795106,2.858587 -1.503701,1.195774 -2.794919,3.488856 -4.295218,7.627904 l -0.781986,2.157357 0.806534,0.334078 c 0.443594,0.183742 1.774338,0.921894 2.957209,1.640337 4.352698,2.643709 6.054619,3.322428 8.401452,3.350462 l 1.481652,0.0177 z m 11.237303,0.963052 c 1.273953,-0.428681 4.033915,-2.233287 4.915234,-3.213832 0.460527,-0.512377 0.449069,-0.548813 -0.396875,-1.262102 -1.175515,-0.991179 -2.495619,-1.511024 -3.356799,-1.321877 -0.391105,0.0859 -1.593645,0.74309 -2.672313,1.460421 -1.078667,0.71733 -2.006468,1.258982 -2.06178,1.203671 -0.166093,-0.166093 1.644775,-2.835174 2.820481,-4.157173 3.455339,-3.885288 7.862744,-2.846179 11.567997,2.727322 1.06613,1.603681 1.26486,1.780128 1.72663,1.532999 0.82506,-0.44156 2.79654,-3.298807 2.99086,-4.33463 0.48606,-2.590935 -2.22379,-5.086591 -6.655006,-6.128984 -2.547547,-0.599281 -7.838917,-0.389775 -9.86137,0.390451 -4.136525,1.595796 -6.35,4.848722 -6.35,9.331968 0,1.225307 0.0499,1.307893 1.411328,2.335781 1.447204,1.09265 3.031626,1.810337 4.069529,1.843353 0.322337,0.01025 1.155774,-0.173062 1.852084,-0.407368 z m 17.723995,-1.028832 2.0035,-0.925676 -0.17528,-1.49139 c -0.2335,-1.986693 -0.38757,-2.155213 -1.01578,-1.111011 -0.2918,0.485033 -1.17676,1.68555 -1.96657,2.667816 -0.78982,0.982265 -1.30403,1.785937 -1.1427,1.785937 0.16133,0 1.1949,-0.416554 2.29683,-0.925676 z m -2.35161,-13.813303 c -0.35928,-1.301209 -0.13615,-2.778913 0.56918,-3.769464 0.31572,-0.443377 0.46323,-0.806139 0.32781,-0.806139 -0.13542,0 -1.7211,0.307672 -3.52374,0.683717 -3.558965,0.742425 -8.255906,1.086542 -10.686115,0.782908 l -1.531384,-0.191334 0.171924,-2.623442 0.171924,-2.623442 -1.562801,1.562802 c -0.859541,0.85954 -1.814409,1.642658 -2.12193,1.740261 -0.894119,0.283783 -0.360364,0.66853 0.927442,0.66853 h 1.183073 l -1.353561,2.00589 c -0.744459,1.10324 -1.302268,2.057184 -1.239576,2.119876 0.06269,0.06269 0.645006,-0.120911 1.294033,-0.408006 3.847322,-1.701854 11.520775,-1.204938 15.791551,1.022625 0.82429,0.429939 1.57842,0.789393 1.67583,0.798786 0.0974,0.0094 0.0553,-0.424212 -0.0937,-0.963568 z"
       id="rosle-logo" /><path
       style="fill:#000000"
       id="path1"
       d="" /></g></svg>
